# ProBuilder 4.4.0
# https://unity3d.com/unity/features/worldbuilding/probuilder
# 17/1/2022 1:55:06 μ.μ.

mtllib ./LeverBase.mtl
o LeverBase

g Base
v 0.05000305 -0.25 0.1000004
v -0.04999542 -0.2186252 0.1000004
v 0.05000305 0.25 0.1000004
v -0.04999542 0.2186252 0.1000004
v -0.0258255 -0.02722812 0.04009819
v -0.0258255 -0.02722812 -0.04009819
v -0.0258255 0.02722812 0.04009819
v -0.0258255 0.02722812 -0.04009819
v -0.04999542 -0.2186252 -0.1000004
v 0.05000305 -0.25 -0.09999962
v -0.04999542 0.2186252 -0.1000004
v 0.05000305 0.25 -0.09999962
v -0.05006409 -0.1670965 0.04511452
v -0.05006409 -0.1670965 -0.04511452
v -0.05006409 0.1670965 0.04511452
v -0.05006409 0.1670965 -0.04511452
v 0.01216125 -0.1171592 0.04511452
v 0.01216125 -0.1171592 -0.04511452
v 0.01216125 0.1171592 0.04511452
v 0.01216125 0.1171592 -0.04511452
v 0.01207733 -0.05459523 0.04009819
v 0.01207733 -0.05459523 -0.04009819
v 0.01207733 0.05459523 0.04009819
v 0.01207733 0.05459523 -0.04009819

vt 0.05000305 -0.25
vt -0.04999542 -0.2186252
vt 0.05000305 0.25
vt -0.04999542 0.2186252
vt 0.04009819 -0.02722812
vt -0.04009819 -0.02722812
vt 0.04009819 0.02722812
vt -0.04009819 0.02722812
vt 0.04999618 -0.2186252
vt -0.05000229 -0.25
vt 0.04999618 0.2186252
vt -0.05000229 0.25
vt 0.09999962 -0.25
vt -0.1000004 -0.25
vt 0.09999962 0.25
vt -0.1000004 0.25
vt -0.1225508 0.1000004
vt -0.0177459 0.1000004
vt -0.1225508 -0.09999962
vt -0.0177459 -0.1000004
vt 0.1225508 -0.09999962
vt 0.0177459 -0.1000004
vt 0.1225508 0.1000004
vt 0.0177459 0.1000004
vt 0.1000004 -0.2185584
vt -0.1000004 -0.2185584
vt 0.04511452 -0.1670296
vt -0.04511452 -0.1670296
vt 0.09993776 0.2186252
vt 0.09993776 -0.2186252
vt 0.04505185 0.1670965
vt -0.09993776 -0.2186252
vt -0.09993776 0.2186252
vt -0.04505185 0.1670965
vt -0.1000004 0.2185584
vt 0.1000004 0.2185584
vt 0.1436301 0.04511452
vt 0.1436301 -0.04511452
vt 0.06384461 0.04511452
vt 0.06384461 -0.04511452
vt 0.05006409 0.1670965
vt 0.05006409 -0.1670965
vt -0.01216125 0.1171592
vt -0.01216125 -0.1171592
vt -0.05006409 -0.1670965
vt -0.05006409 0.1670965
vt 0.01216125 -0.1171592
vt 0.01216125 0.1171592
vt -0.1436301 -0.04511452
vt -0.1436301 0.04511452
vt -0.06384461 -0.04511452
vt -0.06384461 0.04511452
vt 0.04511452 -0.1171755
vt -0.04511452 -0.1171755
vt 0.04009819 -0.05461138
vt -0.04009819 -0.05461138
vt 0.04531164 0.1171592
vt 0.04029461 0.05459523
vt -0.04531164 0.1171592
vt -0.04029461 0.05459523
vt 0.04175122 0.04009819
vt 0.04175122 -0.04009819
vt -0.004999004 0.04009819
vt -0.004999004 -0.04009819
vt 0.01207733 0.05459523
vt 0.01207733 -0.05459523
vt -0.0258255 0.02722812
vt -0.0258255 -0.02722812
vt -0.01207733 -0.05459523
vt -0.01207733 0.05459523
vt 0.0258255 -0.02722812
vt 0.0258255 0.02722812
vt -0.04175122 -0.04009819
vt -0.04175122 0.04009819
vt 0.004999004 -0.04009819
vt 0.004999004 0.04009819

vn 0 0 1
vn -1 0 0
vn 7.599708E-06 0 -1
vn 1 0 0
vn -0.2993639 0.9541391 0
vn -0.2993639 -0.9541391 0
vn -0.9999991 -0.001332549 0
vn -0.9999992 0 0.001251042
vn -0.9999992 0 -0.001251042
vn -0.9999991 0.001332549 0
vn -0.625894 0.7799082 0
vn -0.625894 -0.7799082 0
vn -0.9998601 0 0.0167277
vn -0.9998601 0 -0.0167277
vn -0.58539 -0.8107519 0
vn -0.58539 0.8107519 0

usemtl LeverMat1
f 3/3/1 4/4/1 2/2/1 1/1/1
f 7/7/2 8/8/2 6/6/2 5/5/2
f 11/11/3 12/12/3 10/10/3 9/9/3
f 12/15/4 3/16/4 1/14/4 10/13/4
f 12/19/5 11/20/5 4/18/5 3/17/5
f 1/23/6 2/24/6 9/22/6 10/21/6
f 13/27/7 14/28/7 9/26/7 2/25/7
f 15/31/8 13/27/8 2/30/8 4/29/8
f 14/28/9 16/34/9 11/33/9 9/32/9
f 16/34/10 15/31/10 4/36/10 11/35/10
f 17/39/11 18/40/11 14/38/11 13/37/11
f 19/43/3 17/44/3 13/42/3 15/41/3
f 18/47/1 20/48/1 16/46/1 14/45/1
f 20/51/12 19/52/12 15/50/12 16/49/12
f 21/55/7 22/56/7 18/54/7 17/53/7
f 23/58/13 21/55/13 17/53/13 19/57/13
f 22/56/14 24/60/14 20/59/14 18/54/14
f 24/60/10 23/58/10 19/57/10 20/59/10
f 5/63/15 6/64/15 22/62/15 21/61/15
f 7/67/1 5/68/1 21/66/1 23/65/1
f 6/71/3 8/72/3 24/70/3 22/69/3
f 8/75/16 7/76/16 23/74/16 24/73/16

